<svg width="78" height="78" viewBox="0 0 78 78" fill="none" xmlns="http://www.w3.org/2000/svg">
<path d="M38.9375 0C49.2644 0 59.1683 4.10233 66.4705 11.4045C73.7727 18.7067 77.875 28.6106 77.875 38.9375C77.875 49.2644 73.7727 59.1683 66.4705 66.4705C59.1683 73.7727 49.2644 77.875 38.9375 77.875C28.6106 77.875 18.7067 73.7727 11.4045 66.4705C4.10233 59.1683 0 49.2644 0 38.9375C0 28.6106 4.10233 18.7067 11.4045 11.4045C18.7067 4.10233 28.6106 0 38.9375 0ZM34.087 46.6193L25.4373 37.9641C25.1272 37.654 24.7591 37.408 24.3539 37.2402C23.9488 37.0724 23.5146 36.986 23.076 36.986C22.6375 36.986 22.2033 37.0724 21.7981 37.2402C21.393 37.408 21.0248 37.654 20.7148 37.9641C20.0885 38.5903 19.7367 39.4397 19.7367 40.3253C19.7367 41.211 20.0885 42.0604 20.7148 42.6866L31.7285 53.7004C32.0377 54.012 32.4055 54.2594 32.8108 54.4282C33.2161 54.597 33.6508 54.6839 34.0898 54.6839C34.5288 54.6839 34.9635 54.597 35.3688 54.4282C35.774 54.2594 36.1419 54.012 36.4511 53.7004L59.2573 30.8886C59.5715 30.5798 59.8215 30.2118 59.9928 29.8059C60.1642 29.4 60.2534 28.9642 60.2555 28.5236C60.2575 28.0831 60.1723 27.6465 60.0048 27.239C59.8372 26.8315 59.5907 26.4613 59.2794 26.1495C58.968 25.8378 58.598 25.5908 58.1908 25.4228C57.7835 25.2548 57.347 25.1691 56.9064 25.1706C56.4658 25.1722 56.0299 25.2609 55.6238 25.4317C55.2177 25.6026 54.8495 25.8521 54.5403 26.166L34.087 46.6193Z" fill="#FF725E"/>
</svg>
